<svg xmlns="http://www.w3.org/2000/svg" viewBox="0 0 720 380" width="720" height="380" font-family="-apple-system,Segoe UI,Helvetica,Arial,sans-serif">
<rect width="720" height="380" fill="#FAFAFA"/>
<text x="360.0" y="28" text-anchor="middle" font-size="18" font-weight="600" fill="#222">Latency per task (seconds)</text>

<line x1="70" y1="300.0" x2="690" y2="300.0" stroke="#E5E5E5" stroke-width="1"/>
<text x="62" y="304.0" text-anchor="end" font-size="11" fill="#222">0</text>
<line x1="70" y1="238.75" x2="690" y2="238.75" stroke="#E5E5E5" stroke-width="1"/>
<text x="62" y="242.75" text-anchor="end" font-size="11" fill="#222">100</text>
<line x1="70" y1="177.5" x2="690" y2="177.5" stroke="#E5E5E5" stroke-width="1"/>
<text x="62" y="181.5" text-anchor="end" font-size="11" fill="#222">200</text>
<line x1="70" y1="116.25" x2="690" y2="116.25" stroke="#E5E5E5" stroke-width="1"/>
<text x="62" y="120.25" text-anchor="end" font-size="11" fill="#222">300</text>
<line x1="70" y1="55.0" x2="690" y2="55.0" stroke="#E5E5E5" stroke-width="1"/>
<text x="62" y="59.0" text-anchor="end" font-size="11" fill="#222">400</text>
<rect x="77.3" y="283.01151625" width="21.7" height="16.98848375" fill="#C96442"/>
<rect x="103.0" y="174.7301525" width="21.7" height="125.2698475" fill="#5B8DEF"/>
<text x="88.14999999999999" y="279.01151625" text-anchor="middle" font-size="10" fill="#222">28</text>
<text x="113.85" y="170.7301525" text-anchor="middle" font-size="10" fill="#222">205</text>
<text x="101.0" y="315" text-anchor="end" font-size="10" fill="#222" transform="rotate(-35 101.0 315)">analysis_001</text>
<rect x="139.3" y="278.639185" width="21.7" height="21.360815" fill="#C96442"/>
<rect x="165.0" y="99.14820375" width="21.7" height="200.85179625" fill="#5B8DEF"/>
<text x="150.15" y="274.639185" text-anchor="middle" font-size="10" fill="#222">35</text>
<text x="175.85" y="95.14820375" text-anchor="middle" font-size="10" fill="#222">328</text>
<text x="163.0" y="315" text-anchor="end" font-size="10" fill="#222" transform="rotate(-35 163.0 315)">analysis_002</text>
<rect x="201.3" y="287.58272625" width="21.7" height="12.41727375" fill="#C96442"/>
<rect x="227.0" y="264.5863525" width="21.7" height="35.413647499999996" fill="#5B8DEF"/>
<text x="212.15" y="283.58272625" text-anchor="middle" font-size="10" fill="#222">20</text>
<text x="237.85" y="260.5863525" text-anchor="middle" font-size="10" fill="#222">58</text>
<text x="225.0" y="315" text-anchor="end" font-size="10" fill="#222" transform="rotate(-35 225.0 315)">analysis_003</text>
<rect x="263.3" y="274.11336125" width="21.7" height="25.88663875" fill="#C96442"/>
<rect x="289.0" y="226.01189875" width="21.7" height="73.98810124999999" fill="#5B8DEF"/>
<text x="274.15000000000003" y="270.11336125" text-anchor="middle" font-size="10" fill="#222">42</text>
<text x="299.85" y="222.01189875" text-anchor="middle" font-size="10" fill="#222">121</text>
<text x="287.0" y="315" text-anchor="end" font-size="10" fill="#222" transform="rotate(-35 287.0 315)">coding_001</text>
<rect x="325.3" y="263.85447625" width="21.7" height="36.145523749999995" fill="#C96442"/>
<rect x="351.0" y="270.6425075" width="21.7" height="29.3574925" fill="#5B8DEF"/>
<text x="336.15000000000003" y="259.85447625" text-anchor="middle" font-size="10" fill="#222">59</text>
<text x="361.85" y="266.6425075" text-anchor="middle" font-size="10" fill="#222">48</text>
<text x="349.0" y="315" text-anchor="end" font-size="10" fill="#222" transform="rotate(-35 349.0 315)">coding_002</text>
<rect x="387.3" y="275.90749625" width="21.7" height="24.09250375" fill="#C96442"/>
<rect x="413.0" y="148.9603175" width="21.7" height="151.0396825" fill="#5B8DEF"/>
<text x="398.15000000000003" y="271.90749625" text-anchor="middle" font-size="10" fill="#222">39</text>
<text x="423.85" y="144.9603175" text-anchor="middle" font-size="10" fill="#222">247</text>
<text x="411.0" y="315" text-anchor="end" font-size="10" fill="#222" transform="rotate(-35 411.0 315)">coding_003</text>
<rect x="449.3" y="282.3513025" width="21.7" height="17.6486975" fill="#C96442"/>
<rect x="475.0" y="230.71663375" width="21.7" height="69.28336625" fill="#5B8DEF"/>
<text x="460.15000000000003" y="278.3513025" text-anchor="middle" font-size="10" fill="#222">29</text>
<text x="485.85" y="226.71663375" text-anchor="middle" font-size="10" fill="#222">113</text>
<text x="473.0" y="315" text-anchor="end" font-size="10" fill="#222" transform="rotate(-35 473.0 315)">coding_004</text>
<rect x="511.29999999999995" y="288.8205275" width="21.7" height="11.179472500000001" fill="#C96442"/>
<rect x="537.0" y="213.38251625" width="21.7" height="86.61748374999999" fill="#5B8DEF"/>
<text x="522.15" y="284.8205275" text-anchor="middle" font-size="10" fill="#222">18</text>
<text x="547.85" y="209.38251625" text-anchor="middle" font-size="10" fill="#222">141</text>
<text x="535.0" y="315" text-anchor="end" font-size="10" fill="#222" transform="rotate(-35 535.0 315)">reasoning_001</text>
<rect x="573.3" y="283.53679625" width="21.7" height="16.463203749999998" fill="#C96442"/>
<rect x="599.0" y="263.35871875" width="21.7" height="36.64128125" fill="#5B8DEF"/>
<text x="584.15" y="279.53679625" text-anchor="middle" font-size="10" fill="#222">27</text>
<text x="609.85" y="259.35871875" text-anchor="middle" font-size="10" fill="#222">60</text>
<text x="597.0" y="315" text-anchor="end" font-size="10" fill="#222" transform="rotate(-35 597.0 315)">reasoning_002</text>
<rect x="635.3" y="282.74569125" width="21.7" height="17.254308750000003" fill="#C96442"/>
<rect x="661.0" y="158.90982875000003" width="21.7" height="141.09017124999997" fill="#5B8DEF"/>
<text x="646.15" y="278.74569125" text-anchor="middle" font-size="10" fill="#222">28</text>
<text x="671.85" y="154.90982875000003" text-anchor="middle" font-size="10" fill="#222">230</text>
<text x="659.0" y="315" text-anchor="end" font-size="10" fill="#222" transform="rotate(-35 659.0 315)">reasoning_003</text>
<line x1="70" y1="300" x2="690" y2="300" stroke="#222" stroke-width="1.5"/>
<line x1="70" y1="55" x2="70" y2="300" stroke="#222" stroke-width="1.5"/>
<text x="15" y="177.5" text-anchor="middle" font-size="12" fill="#222" transform="rotate(-90 15 177.5)">seconds</text>
<rect x="510" y="63" width="14" height="14" fill="#C96442"/><text x="530" y="74" font-size="12" fill="#222">Opus 4.7</text>
<rect x="600" y="63" width="14" height="14" fill="#5B8DEF"/><text x="620" y="74" font-size="12" fill="#222">Kimi K2.6</text>
</svg>
