<svg xmlns="http://www.w3.org/2000/svg" viewBox="0 0 720 380" width="720" height="380" font-family="-apple-system,Segoe UI,Helvetica,Arial,sans-serif">
<rect width="720" height="380" fill="#FAFAFA"/>
<text x="360.0" y="28" text-anchor="middle" font-size="18" font-weight="600" fill="#222">Judge score per task (/10)</text>

<line x1="70" y1="300.0" x2="690" y2="300.0" stroke="#E5E5E5" stroke-width="1"/>
<text x="62" y="304.0" text-anchor="end" font-size="11" fill="#222">0.0</text>
<line x1="70" y1="238.75" x2="690" y2="238.75" stroke="#E5E5E5" stroke-width="1"/>
<text x="62" y="242.75" text-anchor="end" font-size="11" fill="#222">2.5</text>
<line x1="70" y1="177.5" x2="690" y2="177.5" stroke="#E5E5E5" stroke-width="1"/>
<text x="62" y="181.5" text-anchor="end" font-size="11" fill="#222">5.0</text>
<line x1="70" y1="116.25" x2="690" y2="116.25" stroke="#E5E5E5" stroke-width="1"/>
<text x="62" y="120.25" text-anchor="end" font-size="11" fill="#222">7.5</text>
<line x1="70" y1="55.0" x2="690" y2="55.0" stroke="#E5E5E5" stroke-width="1"/>
<text x="62" y="59.0" text-anchor="end" font-size="11" fill="#222">10.0</text>
<rect x="77.3" y="79.5" width="21.7" height="220.5" fill="#C96442"/>
<rect x="103.0" y="202.0" width="21.7" height="98.0" fill="#5B8DEF"/>
<text x="88.14999999999999" y="75.5" text-anchor="middle" font-size="10" fill="#222">9.0</text>
<text x="113.85" y="198.0" text-anchor="middle" font-size="10" fill="#222">4.0</text>
<text x="101.0" y="315" text-anchor="end" font-size="10" fill="#222" transform="rotate(-35 101.0 315)">analysis_001</text>
<rect x="139.3" y="79.5" width="21.7" height="220.5" fill="#C96442"/>
<rect x="165.0" y="128.5" width="21.7" height="171.5" fill="#5B8DEF"/>
<text x="150.15" y="75.5" text-anchor="middle" font-size="10" fill="#222">9.0</text>
<text x="175.85" y="124.5" text-anchor="middle" font-size="10" fill="#222">7.0</text>
<text x="163.0" y="315" text-anchor="end" font-size="10" fill="#222" transform="rotate(-35 163.0 315)">analysis_002</text>
<rect x="201.3" y="120.33333333333334" width="21.7" height="179.66666666666666" fill="#C96442"/>
<rect x="227.0" y="161.16666666666666" width="21.7" height="138.83333333333334" fill="#5B8DEF"/>
<text x="212.15" y="116.33333333333334" text-anchor="middle" font-size="10" fill="#222">7.3</text>
<text x="237.85" y="157.16666666666666" text-anchor="middle" font-size="10" fill="#222">5.7</text>
<text x="225.0" y="315" text-anchor="end" font-size="10" fill="#222" transform="rotate(-35 225.0 315)">analysis_003</text>
<rect x="263.3" y="120.33333333333334" width="21.7" height="179.66666666666666" fill="#C96442"/>
<rect x="289.0" y="193.83333333333334" width="21.7" height="106.16666666666666" fill="#5B8DEF"/>
<text x="274.15000000000003" y="116.33333333333334" text-anchor="middle" font-size="10" fill="#222">7.3</text>
<text x="299.85" y="189.83333333333334" text-anchor="middle" font-size="10" fill="#222">4.3</text>
<text x="287.0" y="315" text-anchor="end" font-size="10" fill="#222" transform="rotate(-35 287.0 315)">coding_001</text>
<rect x="325.3" y="112.16666666666666" width="21.7" height="187.83333333333334" fill="#C96442"/>
<rect x="351.0" y="226.5" width="21.7" height="73.5" fill="#5B8DEF"/>
<text x="336.15000000000003" y="108.16666666666666" text-anchor="middle" font-size="10" fill="#222">7.7</text>
<text x="361.85" y="222.5" text-anchor="middle" font-size="10" fill="#222">3.0</text>
<text x="349.0" y="315" text-anchor="end" font-size="10" fill="#222" transform="rotate(-35 349.0 315)">coding_002</text>
<rect x="387.3" y="79.5" width="21.7" height="220.5" fill="#C96442"/>
<rect x="413.0" y="234.66666666666669" width="21.7" height="65.33333333333333" fill="#5B8DEF"/>
<text x="398.15000000000003" y="75.5" text-anchor="middle" font-size="10" fill="#222">9.0</text>
<text x="423.85" y="230.66666666666669" text-anchor="middle" font-size="10" fill="#222">2.7</text>
<text x="411.0" y="315" text-anchor="end" font-size="10" fill="#222" transform="rotate(-35 411.0 315)">coding_003</text>
<rect x="449.3" y="87.66666666666669" width="21.7" height="212.33333333333331" fill="#C96442"/>
<rect x="475.0" y="144.83333333333334" width="21.7" height="155.16666666666666" fill="#5B8DEF"/>
<text x="460.15000000000003" y="83.66666666666669" text-anchor="middle" font-size="10" fill="#222">8.7</text>
<text x="485.85" y="140.83333333333334" text-anchor="middle" font-size="10" fill="#222">6.3</text>
<text x="473.0" y="315" text-anchor="end" font-size="10" fill="#222" transform="rotate(-35 473.0 315)">coding_004</text>
<rect x="511.29999999999995" y="144.83333333333334" width="21.7" height="155.16666666666666" fill="#C96442"/>
<rect x="537.0" y="128.5" width="21.7" height="171.5" fill="#5B8DEF"/>
<text x="522.15" y="140.83333333333334" text-anchor="middle" font-size="10" fill="#222">6.3</text>
<text x="547.85" y="124.5" text-anchor="middle" font-size="10" fill="#222">7.0</text>
<text x="535.0" y="315" text-anchor="end" font-size="10" fill="#222" transform="rotate(-35 535.0 315)">reasoning_001</text>
<rect x="573.3" y="128.5" width="21.7" height="171.5" fill="#C96442"/>
<rect x="599.0" y="226.5" width="21.7" height="73.5" fill="#5B8DEF"/>
<text x="584.15" y="124.5" text-anchor="middle" font-size="10" fill="#222">7.0</text>
<text x="609.85" y="222.5" text-anchor="middle" font-size="10" fill="#222">3.0</text>
<text x="597.0" y="315" text-anchor="end" font-size="10" fill="#222" transform="rotate(-35 597.0 315)">reasoning_002</text>
<rect x="635.3" y="71.33333333333334" width="21.7" height="228.66666666666666" fill="#C96442"/>
<rect x="661.0" y="71.33333333333334" width="21.7" height="228.66666666666666" fill="#5B8DEF"/>
<text x="646.15" y="67.33333333333334" text-anchor="middle" font-size="10" fill="#222">9.3</text>
<text x="671.85" y="67.33333333333334" text-anchor="middle" font-size="10" fill="#222">9.3</text>
<text x="659.0" y="315" text-anchor="end" font-size="10" fill="#222" transform="rotate(-35 659.0 315)">reasoning_003</text>
<line x1="70" y1="300" x2="690" y2="300" stroke="#222" stroke-width="1.5"/>
<line x1="70" y1="55" x2="70" y2="300" stroke="#222" stroke-width="1.5"/>
<text x="15" y="177.5" text-anchor="middle" font-size="12" fill="#222" transform="rotate(-90 15 177.5)">score</text>
<rect x="510" y="63" width="14" height="14" fill="#C96442"/><text x="530" y="74" font-size="12" fill="#222">Opus 4.7</text>
<rect x="600" y="63" width="14" height="14" fill="#5B8DEF"/><text x="620" y="74" font-size="12" fill="#222">Kimi K2.6</text>
</svg>
