<svg xmlns="http://www.w3.org/2000/svg" viewBox="0 0 720 380" width="720" height="380" font-family="-apple-system,Segoe UI,Helvetica,Arial,sans-serif">
<rect width="720" height="380" fill="#FAFAFA"/>
<text x="360.0" y="28" text-anchor="middle" font-size="18" font-weight="600" fill="#222">Latency per task (seconds)</text>

<line x1="70" y1="300.0" x2="690" y2="300.0" stroke="#E5E5E5" stroke-width="1"/>
<text x="62" y="304.0" text-anchor="end" font-size="11" fill="#222">0</text>
<line x1="70" y1="238.75" x2="690" y2="238.75" stroke="#E5E5E5" stroke-width="1"/>
<text x="62" y="242.75" text-anchor="end" font-size="11" fill="#222">500</text>
<line x1="70" y1="177.5" x2="690" y2="177.5" stroke="#E5E5E5" stroke-width="1"/>
<text x="62" y="181.5" text-anchor="end" font-size="11" fill="#222">1000</text>
<line x1="70" y1="116.25" x2="690" y2="116.25" stroke="#E5E5E5" stroke-width="1"/>
<text x="62" y="120.25" text-anchor="end" font-size="11" fill="#222">1500</text>
<line x1="70" y1="55.0" x2="690" y2="55.0" stroke="#E5E5E5" stroke-width="1"/>
<text x="62" y="59.0" text-anchor="end" font-size="11" fill="#222">2000</text>
<rect x="77.3" y="296.84696025" width="21.7" height="3.1530397499999996" fill="#C96442"/>
<rect x="103.0" y="252.417178" width="21.7" height="47.582822" fill="#5B8DEF"/>
<text x="88.14999999999999" y="292.84696025" text-anchor="middle" font-size="10" fill="#222">26</text>
<text x="113.85" y="248.417178" text-anchor="middle" font-size="10" fill="#222">388</text>
<text x="101.0" y="315" text-anchor="end" font-size="10" fill="#222" transform="rotate(-35 101.0 315)">analysis_001</text>
<rect x="139.3" y="296.6376445" width="21.7" height="3.3623555" fill="#C96442"/>
<rect x="165.0" y="260.008944" width="21.7" height="39.99105599999999" fill="#5B8DEF"/>
<text x="150.15" y="292.6376445" text-anchor="middle" font-size="10" fill="#222">27</text>
<text x="175.85" y="256.008944" text-anchor="middle" font-size="10" fill="#222">326</text>
<text x="163.0" y="315" text-anchor="end" font-size="10" fill="#222" transform="rotate(-35 163.0 315)">analysis_002</text>
<rect x="201.3" y="297.67907825" width="21.7" height="2.32092175" fill="#C96442"/>
<rect x="227.0" y="226.4696935" width="21.7" height="73.5303065" fill="#5B8DEF"/>
<text x="212.15" y="293.67907825" text-anchor="middle" font-size="10" fill="#222">19</text>
<text x="237.85" y="222.4696935" text-anchor="middle" font-size="10" fill="#222">600</text>
<text x="225.0" y="315" text-anchor="end" font-size="10" fill="#222" transform="rotate(-35 225.0 315)">analysis_003</text>
<rect x="263.3" y="294.0183495" width="21.7" height="5.981650500000001" fill="#C96442"/>
<rect x="289.0" y="166.00531049999998" width="21.7" height="133.99468950000002" fill="#5B8DEF"/>
<text x="274.15000000000003" y="290.0183495" text-anchor="middle" font-size="10" fill="#222">49</text>
<text x="299.85" y="162.00531049999998" text-anchor="middle" font-size="10" fill="#222">1094</text>
<text x="287.0" y="315" text-anchor="end" font-size="10" fill="#222" transform="rotate(-35 287.0 315)">coding_001</text>
<rect x="325.3" y="295.4764915" width="21.7" height="4.5235085" fill="#C96442"/>
<rect x="351.0" y="150.45607925000002" width="21.7" height="149.54392074999998" fill="#5B8DEF"/>
<text x="336.15000000000003" y="291.4764915" text-anchor="middle" font-size="10" fill="#222">37</text>
<text x="361.85" y="146.45607925000002" text-anchor="middle" font-size="10" fill="#222">1221</text>
<text x="349.0" y="315" text-anchor="end" font-size="10" fill="#222" transform="rotate(-35 349.0 315)">coding_002</text>
<rect x="387.3" y="294.590988" width="21.7" height="5.409011999999999" fill="#C96442"/>
<rect x="413.0" y="262.18786375" width="21.7" height="37.81213625" fill="#5B8DEF"/>
<text x="398.15000000000003" y="290.590988" text-anchor="middle" font-size="10" fill="#222">44</text>
<text x="423.85" y="258.18786375" text-anchor="middle" font-size="10" fill="#222">309</text>
<text x="411.0" y="315" text-anchor="end" font-size="10" fill="#222" transform="rotate(-35 411.0 315)">coding_003</text>
<rect x="449.3" y="296.7317" width="21.7" height="3.2683" fill="#C96442"/>
<rect x="475.0" y="253.74505349999998" width="21.7" height="46.2549465" fill="#5B8DEF"/>
<text x="460.15000000000003" y="292.7317" text-anchor="middle" font-size="10" fill="#222">27</text>
<text x="485.85" y="249.74505349999998" text-anchor="middle" font-size="10" fill="#222">378</text>
<text x="473.0" y="315" text-anchor="end" font-size="10" fill="#222" transform="rotate(-35 473.0 315)">coding_004</text>
<rect x="511.29999999999995" y="297.88088475" width="21.7" height="2.1191152499999997" fill="#C96442"/>
<rect x="537.0" y="280.92401825" width="21.7" height="19.075981749999997" fill="#5B8DEF"/>
<text x="522.15" y="293.88088475" text-anchor="middle" font-size="10" fill="#222">17</text>
<text x="547.85" y="276.92401825" text-anchor="middle" font-size="10" fill="#222">156</text>
<text x="535.0" y="315" text-anchor="end" font-size="10" fill="#222" transform="rotate(-35 535.0 315)">reasoning_001</text>
<rect x="573.3" y="296.83128025" width="21.7" height="3.1687197499999997" fill="#C96442"/>
<rect x="599.0" y="249.71604075" width="21.7" height="50.28395925" fill="#5B8DEF"/>
<text x="584.15" y="292.83128025" text-anchor="middle" font-size="10" fill="#222">26</text>
<text x="609.85" y="245.71604075" text-anchor="middle" font-size="10" fill="#222">410</text>
<text x="597.0" y="315" text-anchor="end" font-size="10" fill="#222" transform="rotate(-35 597.0 315)">reasoning_002</text>
<rect x="635.3" y="296.945634" width="21.7" height="3.0543659999999995" fill="#C96442"/>
<rect x="661.0" y="289.5086835" width="21.7" height="10.4913165" fill="#5B8DEF"/>
<text x="646.15" y="292.945634" text-anchor="middle" font-size="10" fill="#222">25</text>
<text x="671.85" y="285.5086835" text-anchor="middle" font-size="10" fill="#222">86</text>
<text x="659.0" y="315" text-anchor="end" font-size="10" fill="#222" transform="rotate(-35 659.0 315)">reasoning_003</text>
<line x1="70" y1="300" x2="690" y2="300" stroke="#222" stroke-width="1.5"/>
<line x1="70" y1="55" x2="70" y2="300" stroke="#222" stroke-width="1.5"/>
<text x="15" y="177.5" text-anchor="middle" font-size="12" fill="#222" transform="rotate(-90 15 177.5)">seconds</text>
<rect x="510" y="63" width="14" height="14" fill="#C96442"/><text x="530" y="74" font-size="12" fill="#222">Opus 4.7</text>
<rect x="600" y="63" width="14" height="14" fill="#5B8DEF"/><text x="620" y="74" font-size="12" fill="#222">Kimi K2.6</text>
</svg>
