<svg xmlns="http://www.w3.org/2000/svg" viewBox="0 0 860 420" width="860" height="420" font-family="-apple-system,Segoe UI,Helvetica,Arial,sans-serif">
<rect width="860" height="420" fill="#FFFFFF"/>
<rect x="1" y="1" width="858" height="418" rx="10" fill="#FBFBFB" stroke="#EEF0F3" stroke-width="1"/>
<text x="28" y="34" font-size="16" font-weight="700" fill="#1F2328">Total tokens per task</text>
<text x="28" y="54" font-size="12" fill="#6A737D">prompt + completion tokens</text>

<line x1="78" y1="310.0" x2="828" y2="310.0" stroke="#EEF0F3" stroke-width="1"/>
<text x="68" y="314.0" text-anchor="end" font-size="10" fill="#6A737D">0</text>
<line x1="78" y1="264.0" x2="828" y2="264.0" stroke="#EEF0F3" stroke-width="1"/>
<text x="68" y="268.0" text-anchor="end" font-size="10" fill="#6A737D">6000</text>
<line x1="78" y1="218.0" x2="828" y2="218.0" stroke="#EEF0F3" stroke-width="1"/>
<text x="68" y="222.0" text-anchor="end" font-size="10" fill="#6A737D">12.0k</text>
<line x1="78" y1="172.0" x2="828" y2="172.0" stroke="#EEF0F3" stroke-width="1"/>
<text x="68" y="176.0" text-anchor="end" font-size="10" fill="#6A737D">18.0k</text>
<line x1="78" y1="126.0" x2="828" y2="126.0" stroke="#EEF0F3" stroke-width="1"/>
<text x="68" y="130.0" text-anchor="end" font-size="10" fill="#6A737D">24.0k</text>
<line x1="78" y1="80.0" x2="828" y2="80.0" stroke="#EEF0F3" stroke-width="1"/>
<text x="68" y="84.0" text-anchor="end" font-size="10" fill="#6A737D">30.0k</text>
<text x="22" y="195.0" text-anchor="middle" font-size="11" fill="#6A737D" transform="rotate(-90 22 195.0)">tokens</text>
<rect x="86.5" y="290.52666666666664" width="27.0" height="19.473333333333333" rx="3" fill="#D97757"/>
<text x="100.0" y="286.52666666666664" text-anchor="middle" font-size="9" fill="#1F2328" font-weight="600">2540</text>
<rect x="117.5" y="217.011" width="27.0" height="92.989" rx="3" fill="#4F7CF7"/>
<text x="131.0" y="213.011" text-anchor="middle" font-size="9" fill="#1F2328" font-weight="600">12.1k</text>
<text x="115.5" y="324" text-anchor="end" font-size="10" fill="#1F2328" transform="rotate(-32 115.5 324)">analysis_001</text>
<rect x="161.5" y="286.3023333333333" width="27.0" height="23.697666666666667" rx="3" fill="#D97757"/>
<text x="175.0" y="282.3023333333333" text-anchor="middle" font-size="9" fill="#1F2328" font-weight="600">3091</text>
<rect x="192.5" y="258.11966666666666" width="27.0" height="51.88033333333333" rx="3" fill="#4F7CF7"/>
<text x="206.0" y="254.11966666666666" text-anchor="middle" font-size="9" fill="#1F2328" font-weight="600">6767</text>
<text x="190.5" y="324" text-anchor="end" font-size="10" fill="#1F2328" transform="rotate(-32 190.5 324)">analysis_002</text>
<rect x="236.5" y="292.957" width="27.0" height="17.043" rx="3" fill="#D97757"/>
<text x="250.0" y="288.957" text-anchor="middle" font-size="9" fill="#1F2328" font-weight="600">2223</text>
<rect x="267.5" y="145.79533333333333" width="27.0" height="164.20466666666667" rx="3" fill="#4F7CF7"/>
<text x="281.0" y="141.79533333333333" text-anchor="middle" font-size="9" fill="#1F2328" font-weight="600">21.4k</text>
<text x="265.5" y="324" text-anchor="end" font-size="10" fill="#1F2328" transform="rotate(-32 265.5 324)">analysis_003</text>
<rect x="311.5" y="254.28633333333335" width="27.0" height="55.71366666666667" rx="3" fill="#D97757"/>
<text x="325.0" y="250.28633333333335" text-anchor="middle" font-size="9" fill="#1F2328" font-weight="600">7267</text>
<rect x="342.5" y="169.976" width="27.0" height="140.024" rx="3" fill="#4F7CF7"/>
<text x="356.0" y="165.976" text-anchor="middle" font-size="9" fill="#1F2328" font-weight="600">18.3k</text>
<text x="340.5" y="324" text-anchor="end" font-size="10" fill="#1F2328" transform="rotate(-32 340.5 324)">coding_001</text>
<rect x="386.5" y="275.89866666666666" width="27.0" height="34.10133333333333" rx="3" fill="#D97757"/>
<text x="400.0" y="271.89866666666666" text-anchor="middle" font-size="9" fill="#1F2328" font-weight="600">4448</text>
<rect x="417.5" y="91.76066666666668" width="27.0" height="218.23933333333332" rx="3" fill="#4F7CF7"/>
<text x="431.0" y="87.76066666666668" text-anchor="middle" font-size="9" fill="#1F2328" font-weight="600">28.5k</text>
<text x="415.5" y="324" text-anchor="end" font-size="10" fill="#1F2328" transform="rotate(-32 415.5 324)">coding_002</text>
<rect x="461.5" y="272.75533333333334" width="27.0" height="37.24466666666667" rx="3" fill="#D97757"/>
<text x="475.0" y="268.75533333333334" text-anchor="middle" font-size="9" fill="#1F2328" font-weight="600">4858</text>
<rect x="492.5" y="201.86933333333332" width="27.0" height="108.13066666666667" rx="3" fill="#4F7CF7"/>
<text x="506.0" y="197.86933333333332" text-anchor="middle" font-size="9" fill="#1F2328" font-weight="600">14.1k</text>
<text x="490.5" y="324" text-anchor="end" font-size="10" fill="#1F2328" transform="rotate(-32 490.5 324)">coding_003</text>
<rect x="536.5" y="282.01666666666665" width="27.0" height="27.983333333333334" rx="3" fill="#D97757"/>
<text x="550.0" y="278.01666666666665" text-anchor="middle" font-size="9" fill="#1F2328" font-weight="600">3650</text>
<rect x="567.5" y="249.59433333333334" width="27.0" height="60.40566666666667" rx="3" fill="#4F7CF7"/>
<text x="581.0" y="245.59433333333334" text-anchor="middle" font-size="9" fill="#1F2328" font-weight="600">7879</text>
<text x="565.5" y="324" text-anchor="end" font-size="10" fill="#1F2328" transform="rotate(-32 565.5 324)">coding_004</text>
<rect x="611.5" y="291.3623333333333" width="27.0" height="18.637666666666668" rx="3" fill="#D97757"/>
<text x="625.0" y="287.3623333333333" text-anchor="middle" font-size="9" fill="#1F2328" font-weight="600">2431</text>
<rect x="642.5" y="207.236" width="27.0" height="102.764" rx="3" fill="#4F7CF7"/>
<text x="656.0" y="203.236" text-anchor="middle" font-size="9" fill="#1F2328" font-weight="600">13.4k</text>
<text x="640.5" y="324" text-anchor="end" font-size="10" fill="#1F2328" transform="rotate(-32 640.5 324)">reasoning_001</text>
<rect x="686.5" y="289.461" width="27.0" height="20.539" rx="3" fill="#D97757"/>
<text x="700.0" y="285.461" text-anchor="middle" font-size="9" fill="#1F2328" font-weight="600">2679</text>
<rect x="717.5" y="310.0" width="27.0" height="0.1" rx="3" fill="#4F7CF7"/>
<text x="731.0" y="306.0" text-anchor="middle" font-size="9" fill="#6A737D">0</text>
<text x="715.5" y="324" text-anchor="end" font-size="10" fill="#1F2328" transform="rotate(-32 715.5 324)">reasoning_002</text>
<rect x="761.5" y="291.4236666666667" width="27.0" height="18.576333333333334" rx="3" fill="#D97757"/>
<text x="775.0" y="287.4236666666667" text-anchor="middle" font-size="9" fill="#1F2328" font-weight="600">2423</text>
<rect x="792.5" y="262.15233333333333" width="27.0" height="47.84766666666666" rx="3" fill="#4F7CF7"/>
<text x="806.0" y="258.15233333333333" text-anchor="middle" font-size="9" fill="#1F2328" font-weight="600">6241</text>
<text x="790.5" y="324" text-anchor="end" font-size="10" fill="#1F2328" transform="rotate(-32 790.5 324)">reasoning_003</text>
<line x1="78" y1="310" x2="828" y2="310" stroke="#1F2328" stroke-width="1.2"/>
<circle cx="84" cy="398" r="6" fill="#D97757"/><text x="96" y="402" font-size="12" fill="#1F2328">Opus 4.7</text><circle cx="166" cy="398" r="6" fill="#4F7CF7"/><text x="178" y="402" font-size="12" fill="#1F2328">Kimi K2.6</text>
</svg>