<svg xmlns="http://www.w3.org/2000/svg" viewBox="0 0 860 420" width="860" height="420" font-family="-apple-system,Segoe UI,Helvetica,Arial,sans-serif">
<rect width="860" height="420" fill="#FFFFFF"/>
<rect x="1" y="1" width="858" height="418" rx="10" fill="#FBFBFB" stroke="#EEF0F3" stroke-width="1"/>
<text x="28" y="34" font-size="16" font-weight="700" fill="#1F2328">Latency per task</text>
<text x="28" y="54" font-size="12" fill="#6A737D">wall-clock seconds — lower is better</text>

<line x1="78" y1="310.0" x2="828" y2="310.0" stroke="#EEF0F3" stroke-width="1"/>
<text x="68" y="314.0" text-anchor="end" font-size="10" fill="#6A737D">0</text>
<line x1="78" y1="264.0" x2="828" y2="264.0" stroke="#EEF0F3" stroke-width="1"/>
<text x="68" y="268.0" text-anchor="end" font-size="10" fill="#6A737D">250</text>
<line x1="78" y1="218.0" x2="828" y2="218.0" stroke="#EEF0F3" stroke-width="1"/>
<text x="68" y="222.0" text-anchor="end" font-size="10" fill="#6A737D">500</text>
<line x1="78" y1="172.0" x2="828" y2="172.0" stroke="#EEF0F3" stroke-width="1"/>
<text x="68" y="176.0" text-anchor="end" font-size="10" fill="#6A737D">750</text>
<line x1="78" y1="126.0" x2="828" y2="126.0" stroke="#EEF0F3" stroke-width="1"/>
<text x="68" y="130.0" text-anchor="end" font-size="10" fill="#6A737D">1000</text>
<line x1="78" y1="80.0" x2="828" y2="80.0" stroke="#EEF0F3" stroke-width="1"/>
<text x="68" y="84.0" text-anchor="end" font-size="10" fill="#6A737D">1250</text>
<text x="22" y="195.0" text-anchor="middle" font-size="11" fill="#6A737D" transform="rotate(-90 22 195.0)">seconds</text>
<rect x="86.5" y="305.2640056" width="27.0" height="4.735994399999999" rx="3" fill="#D97757"/>
<text x="100.0" y="301.2640056" text-anchor="middle" font-size="9" fill="#6A737D">26</text>
<rect x="117.5" y="238.5286592" width="27.0" height="71.47134080000001" rx="3" fill="#4F7CF7"/>
<text x="131.0" y="234.5286592" text-anchor="middle" font-size="9" fill="#1F2328" font-weight="600">388</text>
<text x="115.5" y="324" text-anchor="end" font-size="10" fill="#1F2328" transform="rotate(-32 115.5 324)">analysis_001</text>
<rect x="161.5" y="304.9496048" width="27.0" height="5.0503952000000005" rx="3" fill="#D97757"/>
<text x="175.0" y="300.9496048" text-anchor="middle" font-size="9" fill="#6A737D">27</text>
<rect x="192.5" y="249.9318016" width="27.0" height="60.06819839999999" rx="3" fill="#4F7CF7"/>
<text x="206.0" y="245.9318016" text-anchor="middle" font-size="9" fill="#1F2328" font-weight="600">326</text>
<text x="190.5" y="324" text-anchor="end" font-size="10" fill="#1F2328" transform="rotate(-32 190.5 324)">analysis_002</text>
<rect x="236.5" y="306.5138808" width="27.0" height="3.4861192" rx="3" fill="#D97757"/>
<text x="250.0" y="302.5138808" text-anchor="middle" font-size="9" fill="#6A737D">19</text>
<rect x="267.5" y="199.5544784" width="27.0" height="110.4455216" rx="3" fill="#4F7CF7"/>
<text x="281.0" y="195.5544784" text-anchor="middle" font-size="9" fill="#1F2328" font-weight="600">600</text>
<text x="265.5" y="324" text-anchor="end" font-size="10" fill="#1F2328" transform="rotate(-32 265.5 324)">analysis_003</text>
<rect x="311.5" y="301.0153168" width="27.0" height="8.984683200000001" rx="3" fill="#D97757"/>
<text x="325.0" y="297.0153168" text-anchor="middle" font-size="9" fill="#6A737D">49</text>
<rect x="342.5" y="108.7345072" width="27.0" height="201.2654928" rx="3" fill="#4F7CF7"/>
<text x="356.0" y="104.7345072" text-anchor="middle" font-size="9" fill="#1F2328" font-weight="600">1094</text>
<text x="340.5" y="324" text-anchor="end" font-size="10" fill="#1F2328" transform="rotate(-32 340.5 324)">coding_001</text>
<rect x="386.5" y="303.2055056" width="27.0" height="6.7944944" rx="3" fill="#D97757"/>
<text x="400.0" y="299.2055056" text-anchor="middle" font-size="9" fill="#6A737D">37</text>
<rect x="417.5" y="85.37892720000002" width="27.0" height="224.62107279999998" rx="3" fill="#4F7CF7"/>
<text x="431.0" y="81.37892720000002" text-anchor="middle" font-size="9" fill="#1F2328" font-weight="600">1221</text>
<text x="415.5" y="324" text-anchor="end" font-size="10" fill="#1F2328" transform="rotate(-32 415.5 324)">coding_002</text>
<rect x="461.5" y="301.8754432" width="27.0" height="8.124556799999999" rx="3" fill="#D97757"/>
<text x="475.0" y="297.8754432" text-anchor="middle" font-size="9" fill="#6A737D">44</text>
<rect x="492.5" y="253.204628" width="27.0" height="56.795372" rx="3" fill="#4F7CF7"/>
<text x="506.0" y="249.204628" text-anchor="middle" font-size="9" fill="#1F2328" font-weight="600">309</text>
<text x="490.5" y="324" text-anchor="end" font-size="10" fill="#1F2328" transform="rotate(-32 490.5 324)">coding_003</text>
<rect x="536.5" y="305.09088" width="27.0" height="4.90912" rx="3" fill="#D97757"/>
<text x="550.0" y="301.09088" text-anchor="middle" font-size="9" fill="#6A737D">27</text>
<rect x="567.5" y="240.5231824" width="27.0" height="69.4768176" rx="3" fill="#4F7CF7"/>
<text x="581.0" y="236.5231824" text-anchor="middle" font-size="9" fill="#1F2328" font-weight="600">378</text>
<text x="565.5" y="324" text-anchor="end" font-size="10" fill="#1F2328" transform="rotate(-32 565.5 324)">coding_004</text>
<rect x="611.5" y="306.8170024" width="27.0" height="3.1829975999999998" rx="3" fill="#D97757"/>
<text x="625.0" y="302.8170024" text-anchor="middle" font-size="9" fill="#6A737D">17</text>
<rect x="642.5" y="281.34709680000003" width="27.0" height="28.652903199999997" rx="3" fill="#4F7CF7"/>
<text x="656.0" y="277.34709680000003" text-anchor="middle" font-size="9" fill="#1F2328" font-weight="600">156</text>
<text x="640.5" y="324" text-anchor="end" font-size="10" fill="#1F2328" transform="rotate(-32 640.5 324)">reasoning_001</text>
<rect x="686.5" y="305.2404536" width="27.0" height="4.7595464" rx="3" fill="#D97757"/>
<text x="700.0" y="301.2404536" text-anchor="middle" font-size="9" fill="#6A737D">26</text>
<rect x="717.5" y="234.4714408" width="27.0" height="75.52855919999999" rx="3" fill="#4F7CF7"/>
<text x="731.0" y="230.4714408" text-anchor="middle" font-size="9" fill="#1F2328" font-weight="600">410</text>
<text x="715.5" y="324" text-anchor="end" font-size="10" fill="#1F2328" transform="rotate(-32 715.5 324)">reasoning_002</text>
<rect x="761.5" y="305.4122176" width="27.0" height="4.5877824" rx="3" fill="#D97757"/>
<text x="775.0" y="301.4122176" text-anchor="middle" font-size="9" fill="#6A737D">25</text>
<rect x="792.5" y="294.2416144" width="27.0" height="15.7583856" rx="3" fill="#4F7CF7"/>
<text x="806.0" y="290.2416144" text-anchor="middle" font-size="9" fill="#1F2328" font-weight="600">86</text>
<text x="790.5" y="324" text-anchor="end" font-size="10" fill="#1F2328" transform="rotate(-32 790.5 324)">reasoning_003</text>
<line x1="78" y1="310" x2="828" y2="310" stroke="#1F2328" stroke-width="1.2"/>
<circle cx="84" cy="398" r="6" fill="#D97757"/><text x="96" y="402" font-size="12" fill="#1F2328">Opus 4.7</text><circle cx="166" cy="398" r="6" fill="#4F7CF7"/><text x="178" y="402" font-size="12" fill="#1F2328">Kimi K2.6</text>
</svg>