<svg xmlns="http://www.w3.org/2000/svg" viewBox="0 0 640 320" width="640" height="320" font-family="-apple-system,Segoe UI,Helvetica,Arial,sans-serif">
<rect width="640" height="320" fill="#FAFAFA"/>
<text x="320.0" y="28" text-anchor="middle" font-size="18" font-weight="600" fill="#222">Averages — Opus 4.7 vs Kimi K2.6</text>

<rect x="120" y="70.83333333333334" width="431.2" height="18" fill="#C96442"/>
<rect x="120" y="92.83333333333334" width="389.70376569037654" height="18" fill="#5B8DEF"/>
<text x="112" y="94.83333333333334" text-anchor="end" font-size="12" fill="#222" font-weight="500">Avg judge score (/10)</text>
<text x="557.2" y="83.83333333333334" font-size="11" fill="#222">8.0</text>
<text x="515.7037656903765" y="105.83333333333334" font-size="11" fill="#222">7.2</text>
<rect x="120" y="142.5" width="25.763818218197585" height="18" fill="#C96442"/>
<rect x="120" y="164.5" width="431.2" height="18" fill="#5B8DEF"/>
<text x="112" y="166.5" text-anchor="end" font-size="12" fill="#222" font-weight="500">Avg latency (s)</text>
<text x="151.76381821819757" y="155.5" font-size="11" fill="#222">29.7</text>
<text x="557.2" y="177.5" font-size="11" fill="#222">496.8</text>
<rect x="120" y="214.16666666666669" width="107.40121238497886" height="18" fill="#C96442"/>
<rect x="120" y="236.16666666666669" width="431.2" height="18" fill="#5B8DEF"/>
<text x="112" y="238.16666666666669" text-anchor="end" font-size="12" fill="#222" font-weight="500">Avg total tokens</text>
<text x="233.40121238497886" y="227.16666666666669" font-size="11" fill="#222">3561.0</text>
<text x="557.2" y="249.16666666666669" font-size="11" fill="#222">14296.9</text>
<rect x="120" y="295" width="14" height="14" fill="#C96442"/><text x="140" y="306" font-size="12" fill="#222">Opus 4.7</text>
<rect x="220" y="295" width="14" height="14" fill="#5B8DEF"/><text x="240" y="306" font-size="12" fill="#222">Kimi K2.6</text>
</svg>
