<svg xmlns="http://www.w3.org/2000/svg" viewBox="0 0 720 360" width="720" height="360" font-family="-apple-system,Segoe UI,Helvetica,Arial,sans-serif">
<rect width="720" height="360" fill="#FFFFFF"/>
<rect x="1" y="1" width="718" height="358" rx="10" fill="#FBFBFB" stroke="#EEF0F3" stroke-width="1"/>
<text x="28" y="34" font-size="16" font-weight="700" fill="#1F2328">Averages — Opus 4.7 vs Kimi K2.6</text>
<text x="28" y="54" font-size="12" fill="#6A737D">Each row is scaled to its own maximum (metrics have different units)</text>

<text x="166" y="112" text-anchor="end" font-size="13" fill="#1F2328" font-weight="600">Avg judge score (/10)</text>
<rect x="180" y="90" width="450.0" height="18" rx="5" fill="#D97757"/>
<text x="638.0" y="104" font-size="12" font-weight="600" fill="#1F2328">8.0</text>
<rect x="180" y="114" width="406.6945606694561" height="18" rx="5" fill="#4F7CF7"/>
<text x="594.6945606694561" y="128" font-size="12" font-weight="600" fill="#1F2328">7.2</text>
<text x="166" y="180" text-anchor="end" font-size="13" fill="#1F2328" font-weight="600">Avg latency (s)</text>
<rect x="180" y="158" width="26.88710157279432" height="18" rx="5" fill="#D97757"/>
<text x="214.88710157279434" y="172" font-size="12" font-weight="600" fill="#1F2328">30</text>
<rect x="180" y="182" width="450.0" height="18" rx="5" fill="#4F7CF7"/>
<text x="638.0" y="196" font-size="12" font-weight="600" fill="#1F2328">497</text>
<text x="166" y="248" text-anchor="end" font-size="13" fill="#1F2328" font-weight="600">Avg total tokens</text>
<rect x="180" y="226" width="112.08382554091023" height="18" rx="5" fill="#D97757"/>
<text x="300.0838255409102" y="240" font-size="12" font-weight="600" fill="#1F2328">3561</text>
<rect x="180" y="250" width="450.0" height="18" rx="5" fill="#4F7CF7"/>
<text x="638.0" y="264" font-size="12" font-weight="600" fill="#1F2328">14.3k</text>
<circle cx="186" cy="332" r="6" fill="#D97757"/><text x="198" y="336" font-size="12" fill="#1F2328">Opus 4.7</text><circle cx="268" cy="332" r="6" fill="#4F7CF7"/><text x="280" y="336" font-size="12" fill="#1F2328">Kimi K2.6</text>
</svg>